<svg width="66" height="61" viewBox="0 0 66 61" fill="none" xmlns="http://www.w3.org/2000/svg">
<g filter="url(#filter0_d_1_722)">
<path d="M21.6207 46.2752C20.002 46.2185 18.5213 45.6251 17.2694 44.5026C14.718 42.2115 14.5871 39.73 14.9285 38.0498C15.6437 34.5218 19.1411 31.0487 23.4335 29.6038C29.1849 27.6673 31.5827 20.2925 31.6057 20.2176L32.8695 20.6283C32.7648 20.958 30.234 28.7309 23.8503 30.8797C20.0485 32.1598 16.8433 35.2885 16.2288 38.3192C15.837 40.2571 16.4836 41.9988 18.1499 43.4954C20.5105 45.6148 23.2904 45.0137 25.2008 44.1382C30.8954 41.5306 37.0336 32.691 37.0223 22.9568L38.3494 22.9533C38.361 33.2252 31.8172 42.5835 25.7464 45.363C24.3163 46.0189 22.9232 46.3209 21.6207 46.2752Z" fill="#324950"/>
<path d="M39.2796 23.8919L38.7454 23.8213C33.3433 23.1131 30.6888 19.9954 30.5793 19.8621L30.3602 19.5993L30.4417 19.2651C30.7559 17.9911 31.8007 17.5581 32.689 17.576C33.8121 16.8975 34.8304 16.5692 35.7176 16.6003C38.5383 16.6991 39.0531 20.072 39.1406 21.0444C39.7514 21.818 39.6375 22.8502 39.4581 23.3748L39.2796 23.8919ZM31.8621 19.273C32.5768 19.9684 34.7104 21.7552 38.2718 22.3878C38.261 22.1873 38.2032 21.9701 38.0402 21.8137L37.8451 21.6255L37.8337 21.3525C37.8324 21.3187 37.6706 18.0144 35.6712 17.9444C35.0039 17.921 34.1736 18.219 33.2058 18.8317L32.9963 18.9638L32.7515 18.9258L32.7466 18.9256C32.2377 18.9078 31.9876 19.0885 31.8621 19.273Z" fill="#324950"/>
<path d="M37.103 17.483L35.7816 17.3792C35.7948 17.159 36.02 15.1689 39.53 13.0976L40.1974 14.2603C37.3143 15.9597 37.1054 17.4681 37.103 17.483Z" fill="#324950"/>
<path d="M42.9636 52.3713L39.3745 52.2455L41.195 0.27742L44.784 0.403146L42.9636 52.3713ZM40.7482 50.948L41.6853 50.9808L43.4116 1.70014L42.4745 1.66731L40.7482 50.948Z" fill="#324950"/>
<path d="M40.6361 16.6175C40.6211 16.5345 40.2623 14.5559 38.0604 13.17C35.2827 11.4193 30.7531 11.4107 24.962 13.1438L24.587 11.8544C30.8681 9.97524 35.6524 10.0422 38.8022 12.0522C41.5013 13.7739 41.9282 16.2926 41.946 16.3989L40.6369 16.6132L41.2914 16.5061L40.6361 16.6175Z" fill="#324950"/>
<path d="M7.75836 23.3612C5.94072 23.2975 4.76226 22.7216 4.25577 21.6476C3.2807 19.5799 5.37759 16.5674 5.80763 15.9847C9.66767 11.263 15.9757 5.72725 24.2087 6.01566C28.6345 6.17069 33.1673 8.00722 37.6819 11.4733L38.0729 11.7753L37.9011 12.2427C37.7722 12.5946 36.4471 15.6216 28.9886 15.8725C28.3713 17.593 25.7505 23.1266 17.657 23.0857C14.6575 23.0701 11.6 23.1618 8.56973 23.3571C8.2689 23.3684 8.0042 23.3698 7.75836 23.3612ZM24.161 7.36031C16.4671 7.09079 10.5005 12.354 6.84879 16.8172C6.14355 17.7717 4.91438 19.9286 5.45255 21.0667C5.77586 21.7522 6.77861 22.0787 8.50261 22.0153C11.5484 21.8187 14.6374 21.7262 17.6652 21.7409C26.1584 21.7846 27.8434 15.1226 27.8587 15.0556L27.9801 14.549L28.4937 14.5401C33.7732 14.4499 35.7349 12.9203 36.3811 12.1706C32.2567 9.11779 28.1468 7.49993 24.161 7.36031Z" fill="#324950"/>
<path d="M40.2831 32.242C39.2141 31.1472 38.718 29.9898 38.8089 28.8024C38.9512 26.9595 40.4881 25.7921 40.5546 25.7432C43.2048 23.8762 44.5773 22.084 44.5379 20.5487C44.4999 19.0972 43.1816 18.2513 43.169 18.2433L43.86 17.0951C43.9385 17.1435 45.7983 18.311 45.8649 20.4945C45.9254 22.5377 44.3984 24.6722 41.3244 26.8363C41.3244 26.8363 40.2216 27.6931 40.1319 28.915C40.0739 29.6928 40.4431 30.4936 41.2256 31.2952L40.2831 32.242Z" fill="#324950"/>
<path d="M39.7405 47.7317C38.6715 46.638 38.1753 45.4807 38.2663 44.2933C38.4085 42.4504 39.9454 41.2824 40.012 41.2328C42.6622 39.3659 44.0346 37.5743 43.9952 36.0396C43.9597 34.5882 42.639 33.7415 42.6263 33.733L43.3174 32.5847C43.3959 32.6337 45.2556 33.8013 45.3223 35.9848C45.3827 38.0286 43.8558 40.1625 40.7818 42.3266C40.7818 42.3266 39.6765 43.1827 39.5893 44.4059C39.5312 45.183 39.9004 45.9839 40.683 46.7848L39.7405 47.7317Z" fill="#324950"/>
<path d="M44.3085 12.8167L43.0793 12.3152C43.1671 12.097 45.2732 6.97367 51.6159 5.4856L51.9148 6.79612C46.2352 8.12733 44.328 12.7698 44.3085 12.8167Z" fill="#324950"/>
<path d="M45.7352 21.2579L44.6434 20.4961C44.7553 20.3306 47.438 16.4456 52.6226 17.1969L52.4341 18.5279C48.1026 17.9021 45.8301 21.1205 45.7352 21.2579Z" fill="#324950"/>
<path d="M60.6633 24.172L60.6131 24.0371C59.9723 22.5714 56.6446 21.9402 53.7413 21.8385C53.3809 21.8258 53.1612 21.8275 53.1532 21.8273C52.7045 21.9028 52.1747 21.9356 51.6719 21.9179C48.1494 21.7945 46.8555 19.3011 46.8018 19.1948L46.5885 18.7702L46.9146 18.4246C49.0713 16.1345 51.2353 15.0103 53.3474 15.0843C58.382 15.2607 61.2965 22.1219 61.842 23.5261C61.868 23.592 61.8941 23.6599 61.9175 23.7288L60.6633 24.172ZM53.789 20.4945C55.3503 20.5491 57.6193 20.7612 59.3836 21.4665C58.1479 19.2852 56.0509 16.5241 53.301 16.4278C51.6972 16.3716 49.9979 17.2257 48.2465 18.9684C48.6939 19.5281 49.7504 20.5043 51.7196 20.5733C52.1417 20.5881 52.5881 20.5599 53.052 20.4899C53.146 20.4826 53.3873 20.4804 53.789 20.4945Z" fill="#324950"/>
<path d="M22.2397 42.5156L21.7179 41.2798C22.3788 40.9928 23.0146 40.683 23.6121 40.3557L24.2418 41.5396C23.6104 41.8845 22.9345 42.2129 22.2397 42.5156Z" fill="#324950"/>
<path d="M26.971 39.7967L26.1866 38.7131C33.1558 33.5356 34.1622 26.062 34.1722 25.9879L35.4896 26.1548C35.4466 26.4841 34.3986 34.2808 26.971 39.7967Z" fill="#324950"/>
</g>
<defs>
<filter id="filter0_d_1_722" x="-0.17981" y="0" width="66.0974" height="60.3713" filterUnits="userSpaceOnUse" color-interpolation-filters="sRGB">
<feFlood flood-opacity="0" result="BackgroundImageFix"/>
<feColorMatrix in="SourceAlpha" type="matrix" values="0 0 0 0 0 0 0 0 0 0 0 0 0 0 0 0 0 0 127 0" result="hardAlpha"/>
<feOffset dy="4"/>
<feGaussianBlur stdDeviation="2"/>
<feComposite in2="hardAlpha" operator="out"/>
<feColorMatrix type="matrix" values="0 0 0 0 0 0 0 0 0 0 0 0 0 0 0 0 0 0 0.25 0"/>
<feBlend mode="normal" in2="BackgroundImageFix" result="effect1_dropShadow_1_722"/>
<feBlend mode="normal" in="SourceGraphic" in2="effect1_dropShadow_1_722" result="shape"/>
</filter>
</defs>
</svg>
