<svg width="1920" height="1098" viewBox="0 0 1920 1098" fill="none" xmlns="http://www.w3.org/2000/svg">
<path fill-rule="evenodd" clip-rule="evenodd" d="M1146.15 187.279C1146.15 290.711 1062.3 374.558 958.867 374.558C855.436 374.558 771.588 290.711 771.588 187.279C771.588 83.8477 855.436 0 958.867 0C1062.3 0 1146.15 83.8477 1146.15 187.279ZM397.029 268.003C325.993 245.4 251.727 229.255 177.461 222.797C117.069 218.483 55.2355 219.933 -6.11356 221.371H-6.11383L-6.11518 221.371C-36.6085 222.085 -66.9822 222.797 -97 222.797V280.918C-97 732.971 267.871 1097.84 719.925 1097.84H929.806V1094.61V975.143V781.406C942.722 506.945 613.369 342.268 397.029 268.003ZM1740.27 222.797C1666.01 229.255 1591.74 245.4 1520.7 268.003C1304.36 342.268 975.011 506.945 991.156 778.177V971.914V1091.39V1094.61H1201.04C1653.09 1094.61 2017.96 729.743 2017.96 277.689V222.797C1986.63 222.797 1955.29 222.074 1924.08 221.354C1862.02 219.921 1800.43 218.5 1740.27 222.797Z" fill="white"/>
</svg>
